<?xml version="1.0" encoding="utf-8"?>
<svg xmlns="http://www.w3.org/2000/svg" xmlns:xlink="http://www.w3.org/1999/xlink" width="600" height="400" viewBox="0 0 2400 1600">
<defs>
  <clipPath id="clip270">
    <rect x="0" y="0" width="2400" height="1600"/>
  </clipPath>
</defs>
<path clip-path="url(#clip270)" d="M0 1600 L2400 1600 L2400 0 L0 0  Z" fill="#ffffff" fill-rule="evenodd" fill-opacity="1"/>
<defs>
  <clipPath id="clip271">
    <rect x="480" y="0" width="1681" height="1600"/>
  </clipPath>
</defs>
<path clip-path="url(#clip270)" d="M193.936 1486.45 L2352.76 1486.45 L2352.76 47.2441 L193.936 47.2441  Z" fill="#ffffff" fill-rule="evenodd" fill-opacity="1"/>
<defs>
  <clipPath id="clip272">
    <rect x="193" y="47" width="2160" height="1440"/>
  </clipPath>
</defs>
<polyline clip-path="url(#clip272)" style="stroke:#000000; stroke-linecap:round; stroke-linejoin:round; stroke-width:2; stroke-opacity:0.1; fill:none" points="254.823,1486.45 254.823,47.2441 "/>
<polyline clip-path="url(#clip272)" style="stroke:#000000; stroke-linecap:round; stroke-linejoin:round; stroke-width:2; stroke-opacity:0.1; fill:none" points="765.296,1486.45 765.296,47.2441 "/>
<polyline clip-path="url(#clip272)" style="stroke:#000000; stroke-linecap:round; stroke-linejoin:round; stroke-width:2; stroke-opacity:0.1; fill:none" points="1275.77,1486.45 1275.77,47.2441 "/>
<polyline clip-path="url(#clip272)" style="stroke:#000000; stroke-linecap:round; stroke-linejoin:round; stroke-width:2; stroke-opacity:0.1; fill:none" points="1786.24,1486.45 1786.24,47.2441 "/>
<polyline clip-path="url(#clip272)" style="stroke:#000000; stroke-linecap:round; stroke-linejoin:round; stroke-width:2; stroke-opacity:0.1; fill:none" points="2296.71,1486.45 2296.71,47.2441 "/>
<polyline clip-path="url(#clip270)" style="stroke:#000000; stroke-linecap:round; stroke-linejoin:round; stroke-width:4; stroke-opacity:1; fill:none" points="193.936,1486.45 2352.76,1486.45 "/>
<polyline clip-path="url(#clip270)" style="stroke:#000000; stroke-linecap:round; stroke-linejoin:round; stroke-width:4; stroke-opacity:1; fill:none" points="254.823,1486.45 254.823,1467.55 "/>
<polyline clip-path="url(#clip270)" style="stroke:#000000; stroke-linecap:round; stroke-linejoin:round; stroke-width:4; stroke-opacity:1; fill:none" points="765.296,1486.45 765.296,1467.55 "/>
<polyline clip-path="url(#clip270)" style="stroke:#000000; stroke-linecap:round; stroke-linejoin:round; stroke-width:4; stroke-opacity:1; fill:none" points="1275.77,1486.45 1275.77,1467.55 "/>
<polyline clip-path="url(#clip270)" style="stroke:#000000; stroke-linecap:round; stroke-linejoin:round; stroke-width:4; stroke-opacity:1; fill:none" points="1786.24,1486.45 1786.24,1467.55 "/>
<polyline clip-path="url(#clip270)" style="stroke:#000000; stroke-linecap:round; stroke-linejoin:round; stroke-width:4; stroke-opacity:1; fill:none" points="2296.71,1486.45 2296.71,1467.55 "/>
<path clip-path="url(#clip270)" d="M232.208 1517.37 Q228.597 1517.37 226.768 1520.93 Q224.962 1524.47 224.962 1531.6 Q224.962 1538.71 226.768 1542.27 Q228.597 1545.82 232.208 1545.82 Q235.842 1545.82 237.648 1542.27 Q239.476 1538.71 239.476 1531.6 Q239.476 1524.47 237.648 1520.93 Q235.842 1517.37 232.208 1517.37 M232.208 1513.66 Q238.018 1513.66 241.073 1518.27 Q244.152 1522.85 244.152 1531.6 Q244.152 1540.33 241.073 1544.94 Q238.018 1549.52 232.208 1549.52 Q226.398 1549.52 223.319 1544.94 Q220.263 1540.33 220.263 1531.6 Q220.263 1522.85 223.319 1518.27 Q226.398 1513.66 232.208 1513.66 Z" fill="#000000" fill-rule="nonzero" fill-opacity="1" /><path clip-path="url(#clip270)" d="M252.37 1542.97 L257.254 1542.97 L257.254 1548.85 L252.37 1548.85 L252.37 1542.97 Z" fill="#000000" fill-rule="nonzero" fill-opacity="1" /><path clip-path="url(#clip270)" d="M277.439 1517.37 Q273.828 1517.37 271.999 1520.93 Q270.194 1524.47 270.194 1531.6 Q270.194 1538.71 271.999 1542.27 Q273.828 1545.82 277.439 1545.82 Q281.073 1545.82 282.879 1542.27 Q284.707 1538.71 284.707 1531.6 Q284.707 1524.47 282.879 1520.93 Q281.073 1517.37 277.439 1517.37 M277.439 1513.66 Q283.249 1513.66 286.305 1518.27 Q289.383 1522.85 289.383 1531.6 Q289.383 1540.33 286.305 1544.94 Q283.249 1549.52 277.439 1549.52 Q271.629 1549.52 268.55 1544.94 Q265.495 1540.33 265.495 1531.6 Q265.495 1522.85 268.55 1518.27 Q271.629 1513.66 277.439 1513.66 Z" fill="#000000" fill-rule="nonzero" fill-opacity="1" /><path clip-path="url(#clip270)" d="M737.032 1544.91 L753.352 1544.91 L753.352 1548.85 L731.407 1548.85 L731.407 1544.91 Q734.069 1542.16 738.653 1537.53 Q743.259 1532.88 744.44 1531.53 Q746.685 1529.01 747.565 1527.27 Q748.467 1525.51 748.467 1523.82 Q748.467 1521.07 746.523 1519.33 Q744.602 1517.6 741.5 1517.6 Q739.301 1517.6 736.847 1518.36 Q734.416 1519.13 731.639 1520.68 L731.639 1515.95 Q734.463 1514.82 736.916 1514.24 Q739.37 1513.66 741.407 1513.66 Q746.777 1513.66 749.972 1516.35 Q753.166 1519.03 753.166 1523.52 Q753.166 1525.65 752.356 1527.57 Q751.569 1529.47 749.463 1532.07 Q748.884 1532.74 745.782 1535.95 Q742.68 1539.15 737.032 1544.91 Z" fill="#000000" fill-rule="nonzero" fill-opacity="1" /><path clip-path="url(#clip270)" d="M763.166 1542.97 L768.051 1542.97 L768.051 1548.85 L763.166 1548.85 L763.166 1542.97 Z" fill="#000000" fill-rule="nonzero" fill-opacity="1" /><path clip-path="url(#clip270)" d="M778.282 1514.29 L796.638 1514.29 L796.638 1518.22 L782.564 1518.22 L782.564 1526.7 Q783.583 1526.35 784.601 1526.19 Q785.62 1526 786.638 1526 Q792.425 1526 795.805 1529.17 Q799.185 1532.34 799.185 1537.76 Q799.185 1543.34 795.712 1546.44 Q792.24 1549.52 785.921 1549.52 Q783.745 1549.52 781.476 1549.15 Q779.231 1548.78 776.824 1548.04 L776.824 1543.34 Q778.907 1544.47 781.129 1545.03 Q783.351 1545.58 785.828 1545.58 Q789.833 1545.58 792.171 1543.48 Q794.509 1541.37 794.509 1537.76 Q794.509 1534.15 792.171 1532.04 Q789.833 1529.94 785.828 1529.94 Q783.953 1529.94 782.078 1530.35 Q780.226 1530.77 778.282 1531.65 L778.282 1514.29 Z" fill="#000000" fill-rule="nonzero" fill-opacity="1" /><path clip-path="url(#clip270)" d="M1242.93 1514.29 L1261.29 1514.29 L1261.29 1518.22 L1247.22 1518.22 L1247.22 1526.7 Q1248.23 1526.35 1249.25 1526.19 Q1250.27 1526 1251.29 1526 Q1257.08 1526 1260.46 1529.17 Q1263.84 1532.34 1263.84 1537.76 Q1263.84 1543.34 1260.36 1546.44 Q1256.89 1549.52 1250.57 1549.52 Q1248.4 1549.52 1246.13 1549.15 Q1243.88 1548.78 1241.47 1548.04 L1241.47 1543.34 Q1243.56 1544.47 1245.78 1545.03 Q1248 1545.58 1250.48 1545.58 Q1254.48 1545.58 1256.82 1543.48 Q1259.16 1541.37 1259.16 1537.76 Q1259.16 1534.15 1256.82 1532.04 Q1254.48 1529.94 1250.48 1529.94 Q1248.6 1529.94 1246.73 1530.35 Q1244.88 1530.77 1242.93 1531.65 L1242.93 1514.29 Z" fill="#000000" fill-rule="nonzero" fill-opacity="1" /><path clip-path="url(#clip270)" d="M1273.05 1542.97 L1277.93 1542.97 L1277.93 1548.85 L1273.05 1548.85 L1273.05 1542.97 Z" fill="#000000" fill-rule="nonzero" fill-opacity="1" /><path clip-path="url(#clip270)" d="M1298.12 1517.37 Q1294.51 1517.37 1292.68 1520.93 Q1290.87 1524.47 1290.87 1531.6 Q1290.87 1538.71 1292.68 1542.27 Q1294.51 1545.82 1298.12 1545.82 Q1301.75 1545.82 1303.56 1542.27 Q1305.39 1538.71 1305.39 1531.6 Q1305.39 1524.47 1303.56 1520.93 Q1301.75 1517.37 1298.12 1517.37 M1298.12 1513.66 Q1303.93 1513.66 1306.98 1518.27 Q1310.06 1522.85 1310.06 1531.6 Q1310.06 1540.33 1306.98 1544.94 Q1303.93 1549.52 1298.12 1549.52 Q1292.31 1549.52 1289.23 1544.94 Q1286.17 1540.33 1286.17 1531.6 Q1286.17 1522.85 1289.23 1518.27 Q1292.31 1513.66 1298.12 1513.66 Z" fill="#000000" fill-rule="nonzero" fill-opacity="1" /><path clip-path="url(#clip270)" d="M1752.56 1514.29 L1774.78 1514.29 L1774.78 1516.28 L1762.24 1548.85 L1757.35 1548.85 L1769.16 1518.22 L1752.56 1518.22 L1752.56 1514.29 Z" fill="#000000" fill-rule="nonzero" fill-opacity="1" /><path clip-path="url(#clip270)" d="M1783.9 1542.97 L1788.79 1542.97 L1788.79 1548.85 L1783.9 1548.85 L1783.9 1542.97 Z" fill="#000000" fill-rule="nonzero" fill-opacity="1" /><path clip-path="url(#clip270)" d="M1799.02 1514.29 L1817.38 1514.29 L1817.38 1518.22 L1803.3 1518.22 L1803.3 1526.7 Q1804.32 1526.35 1805.34 1526.19 Q1806.36 1526 1807.38 1526 Q1813.16 1526 1816.54 1529.17 Q1819.92 1532.34 1819.92 1537.76 Q1819.92 1543.34 1816.45 1546.44 Q1812.98 1549.52 1806.66 1549.52 Q1804.48 1549.52 1802.21 1549.15 Q1799.97 1548.78 1797.56 1548.04 L1797.56 1543.34 Q1799.64 1544.47 1801.87 1545.03 Q1804.09 1545.58 1806.56 1545.58 Q1810.57 1545.58 1812.91 1543.48 Q1815.25 1541.37 1815.25 1537.76 Q1815.25 1534.15 1812.91 1532.04 Q1810.57 1529.94 1806.56 1529.94 Q1804.69 1529.94 1802.81 1530.35 Q1800.96 1530.77 1799.02 1531.65 L1799.02 1514.29 Z" fill="#000000" fill-rule="nonzero" fill-opacity="1" /><path clip-path="url(#clip270)" d="M2248.79 1544.91 L2256.42 1544.91 L2256.42 1518.55 L2248.11 1520.21 L2248.11 1515.95 L2256.38 1514.29 L2261.05 1514.29 L2261.05 1544.91 L2268.69 1544.91 L2268.69 1548.85 L2248.79 1548.85 L2248.79 1544.91 Z" fill="#000000" fill-rule="nonzero" fill-opacity="1" /><path clip-path="url(#clip270)" d="M2288.14 1517.37 Q2284.53 1517.37 2282.7 1520.93 Q2280.89 1524.47 2280.89 1531.6 Q2280.89 1538.71 2282.7 1542.27 Q2284.53 1545.82 2288.14 1545.82 Q2291.77 1545.82 2293.58 1542.27 Q2295.41 1538.71 2295.41 1531.6 Q2295.41 1524.47 2293.58 1520.93 Q2291.77 1517.37 2288.14 1517.37 M2288.14 1513.66 Q2293.95 1513.66 2297 1518.27 Q2300.08 1522.85 2300.08 1531.6 Q2300.08 1540.33 2297 1544.94 Q2293.95 1549.52 2288.14 1549.52 Q2282.33 1549.52 2279.25 1544.94 Q2276.19 1540.33 2276.19 1531.6 Q2276.19 1522.85 2279.25 1518.27 Q2282.33 1513.66 2288.14 1513.66 Z" fill="#000000" fill-rule="nonzero" fill-opacity="1" /><path clip-path="url(#clip270)" d="M2308.3 1542.97 L2313.18 1542.97 L2313.18 1548.85 L2308.3 1548.85 L2308.3 1542.97 Z" fill="#000000" fill-rule="nonzero" fill-opacity="1" /><path clip-path="url(#clip270)" d="M2333.37 1517.37 Q2329.76 1517.37 2327.93 1520.93 Q2326.12 1524.47 2326.12 1531.6 Q2326.12 1538.71 2327.93 1542.27 Q2329.76 1545.82 2333.37 1545.82 Q2337 1545.82 2338.81 1542.27 Q2340.64 1538.71 2340.64 1531.6 Q2340.64 1524.47 2338.81 1520.93 Q2337 1517.37 2333.37 1517.37 M2333.37 1513.66 Q2339.18 1513.66 2342.23 1518.27 Q2345.31 1522.85 2345.31 1531.6 Q2345.31 1540.33 2342.23 1544.94 Q2339.18 1549.52 2333.37 1549.52 Q2327.56 1549.52 2324.48 1544.94 Q2321.42 1540.33 2321.42 1531.6 Q2321.42 1522.85 2324.48 1518.27 Q2327.56 1513.66 2333.37 1513.66 Z" fill="#000000" fill-rule="nonzero" fill-opacity="1" /><polyline clip-path="url(#clip272)" style="stroke:#000000; stroke-linecap:round; stroke-linejoin:round; stroke-width:2; stroke-opacity:0.1; fill:none" points="193.936,1477.37 2352.76,1477.37 "/>
<polyline clip-path="url(#clip272)" style="stroke:#000000; stroke-linecap:round; stroke-linejoin:round; stroke-width:2; stroke-opacity:0.1; fill:none" points="193.936,1195.63 2352.76,1195.63 "/>
<polyline clip-path="url(#clip272)" style="stroke:#000000; stroke-linecap:round; stroke-linejoin:round; stroke-width:2; stroke-opacity:0.1; fill:none" points="193.936,913.878 2352.76,913.878 "/>
<polyline clip-path="url(#clip272)" style="stroke:#000000; stroke-linecap:round; stroke-linejoin:round; stroke-width:2; stroke-opacity:0.1; fill:none" points="193.936,632.13 2352.76,632.13 "/>
<polyline clip-path="url(#clip272)" style="stroke:#000000; stroke-linecap:round; stroke-linejoin:round; stroke-width:2; stroke-opacity:0.1; fill:none" points="193.936,350.383 2352.76,350.383 "/>
<polyline clip-path="url(#clip272)" style="stroke:#000000; stroke-linecap:round; stroke-linejoin:round; stroke-width:2; stroke-opacity:0.1; fill:none" points="193.936,68.6359 2352.76,68.6359 "/>
<polyline clip-path="url(#clip270)" style="stroke:#000000; stroke-linecap:round; stroke-linejoin:round; stroke-width:4; stroke-opacity:1; fill:none" points="193.936,1486.45 193.936,47.2441 "/>
<polyline clip-path="url(#clip270)" style="stroke:#000000; stroke-linecap:round; stroke-linejoin:round; stroke-width:4; stroke-opacity:1; fill:none" points="193.936,1477.37 212.834,1477.37 "/>
<polyline clip-path="url(#clip270)" style="stroke:#000000; stroke-linecap:round; stroke-linejoin:round; stroke-width:4; stroke-opacity:1; fill:none" points="193.936,1195.63 212.834,1195.63 "/>
<polyline clip-path="url(#clip270)" style="stroke:#000000; stroke-linecap:round; stroke-linejoin:round; stroke-width:4; stroke-opacity:1; fill:none" points="193.936,913.878 212.834,913.878 "/>
<polyline clip-path="url(#clip270)" style="stroke:#000000; stroke-linecap:round; stroke-linejoin:round; stroke-width:4; stroke-opacity:1; fill:none" points="193.936,632.13 212.834,632.13 "/>
<polyline clip-path="url(#clip270)" style="stroke:#000000; stroke-linecap:round; stroke-linejoin:round; stroke-width:4; stroke-opacity:1; fill:none" points="193.936,350.383 212.834,350.383 "/>
<polyline clip-path="url(#clip270)" style="stroke:#000000; stroke-linecap:round; stroke-linejoin:round; stroke-width:4; stroke-opacity:1; fill:none" points="193.936,68.6359 212.834,68.6359 "/>
<path clip-path="url(#clip270)" d="M50.9921 1477.82 L80.6679 1477.82 L80.6679 1481.76 L50.9921 1481.76 L50.9921 1477.82 Z" fill="#000000" fill-rule="nonzero" fill-opacity="1" /><path clip-path="url(#clip270)" d="M91.5706 1490.72 L99.2095 1490.72 L99.2095 1464.35 L90.8993 1466.02 L90.8993 1461.76 L99.1632 1460.09 L103.839 1460.09 L103.839 1490.72 L111.478 1490.72 L111.478 1494.65 L91.5706 1494.65 L91.5706 1490.72 Z" fill="#000000" fill-rule="nonzero" fill-opacity="1" /><path clip-path="url(#clip270)" d="M120.922 1488.77 L125.807 1488.77 L125.807 1494.65 L120.922 1494.65 L120.922 1488.77 Z" fill="#000000" fill-rule="nonzero" fill-opacity="1" /><path clip-path="url(#clip270)" d="M145.992 1463.17 Q142.381 1463.17 140.552 1466.74 Q138.746 1470.28 138.746 1477.41 Q138.746 1484.51 140.552 1488.08 Q142.381 1491.62 145.992 1491.62 Q149.626 1491.62 151.431 1488.08 Q153.26 1484.51 153.26 1477.41 Q153.26 1470.28 151.431 1466.74 Q149.626 1463.17 145.992 1463.17 M145.992 1459.47 Q151.802 1459.47 154.857 1464.07 Q157.936 1468.66 157.936 1477.41 Q157.936 1486.13 154.857 1490.74 Q151.802 1495.32 145.992 1495.32 Q140.181 1495.32 137.103 1490.74 Q134.047 1486.13 134.047 1477.41 Q134.047 1468.66 137.103 1464.07 Q140.181 1459.47 145.992 1459.47 Z" fill="#000000" fill-rule="nonzero" fill-opacity="1" /><path clip-path="url(#clip270)" d="M51.9875 1196.08 L81.6633 1196.08 L81.6633 1200.01 L51.9875 1200.01 L51.9875 1196.08 Z" fill="#000000" fill-rule="nonzero" fill-opacity="1" /><path clip-path="url(#clip270)" d="M101.756 1181.42 Q98.1447 1181.42 96.316 1184.99 Q94.5104 1188.53 94.5104 1195.66 Q94.5104 1202.77 96.316 1206.33 Q98.1447 1209.87 101.756 1209.87 Q105.39 1209.87 107.196 1206.33 Q109.024 1202.77 109.024 1195.66 Q109.024 1188.53 107.196 1184.99 Q105.39 1181.42 101.756 1181.42 M101.756 1177.72 Q107.566 1177.72 110.621 1182.33 Q113.7 1186.91 113.7 1195.66 Q113.7 1204.39 110.621 1208.99 Q107.566 1213.58 101.756 1213.58 Q95.9456 1213.58 92.8669 1208.99 Q89.8114 1204.39 89.8114 1195.66 Q89.8114 1186.91 92.8669 1182.33 Q95.9456 1177.72 101.756 1177.72 Z" fill="#000000" fill-rule="nonzero" fill-opacity="1" /><path clip-path="url(#clip270)" d="M121.918 1207.03 L126.802 1207.03 L126.802 1212.91 L121.918 1212.91 L121.918 1207.03 Z" fill="#000000" fill-rule="nonzero" fill-opacity="1" /><path clip-path="url(#clip270)" d="M137.033 1178.35 L155.39 1178.35 L155.39 1182.28 L141.316 1182.28 L141.316 1190.75 Q142.334 1190.41 143.353 1190.24 Q144.371 1190.06 145.39 1190.06 Q151.177 1190.06 154.556 1193.23 Q157.936 1196.4 157.936 1201.82 Q157.936 1207.4 154.464 1210.5 Q150.992 1213.58 144.672 1213.58 Q142.496 1213.58 140.228 1213.21 Q137.982 1212.84 135.575 1212.09 L135.575 1207.4 Q137.658 1208.53 139.881 1209.09 Q142.103 1209.64 144.58 1209.64 Q148.584 1209.64 150.922 1207.53 Q153.26 1205.43 153.26 1201.82 Q153.26 1198.21 150.922 1196.1 Q148.584 1193.99 144.58 1193.99 Q142.705 1193.99 140.83 1194.41 Q138.978 1194.83 137.033 1195.71 L137.033 1178.35 Z" fill="#000000" fill-rule="nonzero" fill-opacity="1" /><path clip-path="url(#clip270)" d="M100.76 899.676 Q97.1493 899.676 95.3206 903.241 Q93.515 906.783 93.515 913.912 Q93.515 921.019 95.3206 924.584 Q97.1493 928.125 100.76 928.125 Q104.395 928.125 106.2 924.584 Q108.029 921.019 108.029 913.912 Q108.029 906.783 106.2 903.241 Q104.395 899.676 100.76 899.676 M100.76 895.973 Q106.571 895.973 109.626 900.579 Q112.705 905.162 112.705 913.912 Q112.705 922.639 109.626 927.246 Q106.571 931.829 100.76 931.829 Q94.9502 931.829 91.8715 927.246 Q88.816 922.639 88.816 913.912 Q88.816 905.162 91.8715 900.579 Q94.9502 895.973 100.76 895.973 Z" fill="#000000" fill-rule="nonzero" fill-opacity="1" /><path clip-path="url(#clip270)" d="M120.922 925.278 L125.807 925.278 L125.807 931.158 L120.922 931.158 L120.922 925.278 Z" fill="#000000" fill-rule="nonzero" fill-opacity="1" /><path clip-path="url(#clip270)" d="M145.992 899.676 Q142.381 899.676 140.552 903.241 Q138.746 906.783 138.746 913.912 Q138.746 921.019 140.552 924.584 Q142.381 928.125 145.992 928.125 Q149.626 928.125 151.431 924.584 Q153.26 921.019 153.26 913.912 Q153.26 906.783 151.431 903.241 Q149.626 899.676 145.992 899.676 M145.992 895.973 Q151.802 895.973 154.857 900.579 Q157.936 905.162 157.936 913.912 Q157.936 922.639 154.857 927.246 Q151.802 931.829 145.992 931.829 Q140.181 931.829 137.103 927.246 Q134.047 922.639 134.047 913.912 Q134.047 905.162 137.103 900.579 Q140.181 895.973 145.992 895.973 Z" fill="#000000" fill-rule="nonzero" fill-opacity="1" /><path clip-path="url(#clip270)" d="M101.756 617.929 Q98.1447 617.929 96.316 621.494 Q94.5104 625.036 94.5104 632.165 Q94.5104 639.272 96.316 642.836 Q98.1447 646.378 101.756 646.378 Q105.39 646.378 107.196 642.836 Q109.024 639.272 109.024 632.165 Q109.024 625.036 107.196 621.494 Q105.39 617.929 101.756 617.929 M101.756 614.225 Q107.566 614.225 110.621 618.832 Q113.7 623.415 113.7 632.165 Q113.7 640.892 110.621 645.498 Q107.566 650.082 101.756 650.082 Q95.9456 650.082 92.8669 645.498 Q89.8114 640.892 89.8114 632.165 Q89.8114 623.415 92.8669 618.832 Q95.9456 614.225 101.756 614.225 Z" fill="#000000" fill-rule="nonzero" fill-opacity="1" /><path clip-path="url(#clip270)" d="M121.918 643.531 L126.802 643.531 L126.802 649.41 L121.918 649.41 L121.918 643.531 Z" fill="#000000" fill-rule="nonzero" fill-opacity="1" /><path clip-path="url(#clip270)" d="M137.033 614.85 L155.39 614.85 L155.39 618.786 L141.316 618.786 L141.316 627.258 Q142.334 626.911 143.353 626.749 Q144.371 626.563 145.39 626.563 Q151.177 626.563 154.556 629.735 Q157.936 632.906 157.936 638.323 Q157.936 643.901 154.464 647.003 Q150.992 650.082 144.672 650.082 Q142.496 650.082 140.228 649.711 Q137.982 649.341 135.575 648.6 L135.575 643.901 Q137.658 645.035 139.881 645.591 Q142.103 646.147 144.58 646.147 Q148.584 646.147 150.922 644.04 Q153.26 641.934 153.26 638.323 Q153.26 634.711 150.922 632.605 Q148.584 630.499 144.58 630.499 Q142.705 630.499 140.83 630.915 Q138.978 631.332 137.033 632.211 L137.033 614.85 Z" fill="#000000" fill-rule="nonzero" fill-opacity="1" /><path clip-path="url(#clip270)" d="M91.5706 363.728 L99.2095 363.728 L99.2095 337.362 L90.8993 339.029 L90.8993 334.77 L99.1632 333.103 L103.839 333.103 L103.839 363.728 L111.478 363.728 L111.478 367.663 L91.5706 367.663 L91.5706 363.728 Z" fill="#000000" fill-rule="nonzero" fill-opacity="1" /><path clip-path="url(#clip270)" d="M120.922 361.784 L125.807 361.784 L125.807 367.663 L120.922 367.663 L120.922 361.784 Z" fill="#000000" fill-rule="nonzero" fill-opacity="1" /><path clip-path="url(#clip270)" d="M145.992 336.182 Q142.381 336.182 140.552 339.747 Q138.746 343.288 138.746 350.418 Q138.746 357.524 140.552 361.089 Q142.381 364.631 145.992 364.631 Q149.626 364.631 151.431 361.089 Q153.26 357.524 153.26 350.418 Q153.26 343.288 151.431 339.747 Q149.626 336.182 145.992 336.182 M145.992 332.478 Q151.802 332.478 154.857 337.085 Q157.936 341.668 157.936 350.418 Q157.936 359.145 154.857 363.751 Q151.802 368.334 145.992 368.334 Q140.181 368.334 137.103 363.751 Q134.047 359.145 134.047 350.418 Q134.047 341.668 137.103 337.085 Q140.181 332.478 145.992 332.478 Z" fill="#000000" fill-rule="nonzero" fill-opacity="1" /><path clip-path="url(#clip270)" d="M92.566 81.9807 L100.205 81.9807 L100.205 55.6151 L91.8947 57.2818 L91.8947 53.0225 L100.159 51.3559 L104.834 51.3559 L104.834 81.9807 L112.473 81.9807 L112.473 85.9159 L92.566 85.9159 L92.566 81.9807 Z" fill="#000000" fill-rule="nonzero" fill-opacity="1" /><path clip-path="url(#clip270)" d="M121.918 80.0363 L126.802 80.0363 L126.802 85.9159 L121.918 85.9159 L121.918 80.0363 Z" fill="#000000" fill-rule="nonzero" fill-opacity="1" /><path clip-path="url(#clip270)" d="M137.033 51.3559 L155.39 51.3559 L155.39 55.291 L141.316 55.291 L141.316 63.7632 Q142.334 63.416 143.353 63.2539 Q144.371 63.0688 145.39 63.0688 Q151.177 63.0688 154.556 66.24 Q157.936 69.4113 157.936 74.828 Q157.936 80.4066 154.464 83.5085 Q150.992 86.5872 144.672 86.5872 Q142.496 86.5872 140.228 86.2168 Q137.982 85.8464 135.575 85.1057 L135.575 80.4066 Q137.658 81.5409 139.881 82.0964 Q142.103 82.652 144.58 82.652 Q148.584 82.652 150.922 80.5455 Q153.26 78.439 153.26 74.828 Q153.26 71.2169 150.922 69.1104 Q148.584 67.0039 144.58 67.0039 Q142.705 67.0039 140.83 67.4206 Q138.978 67.8373 137.033 68.7169 L137.033 51.3559 Z" fill="#000000" fill-rule="nonzero" fill-opacity="1" /><circle clip-path="url(#clip272)" cx="1193.42" cy="1322.94" r="14.4" fill="#009af9" fill-rule="evenodd" fill-opacity="1" stroke="#000000" stroke-opacity="1" stroke-width="3.2"/>
<circle clip-path="url(#clip272)" cx="569.082" cy="244.169" r="14.4" fill="#009af9" fill-rule="evenodd" fill-opacity="1" stroke="#000000" stroke-opacity="1" stroke-width="3.2"/>
<circle clip-path="url(#clip272)" cx="355.965" cy="400.212" r="14.4" fill="#009af9" fill-rule="evenodd" fill-opacity="1" stroke="#000000" stroke-opacity="1" stroke-width="3.2"/>
<circle clip-path="url(#clip272)" cx="1674.01" cy="316.325" r="14.4" fill="#009af9" fill-rule="evenodd" fill-opacity="1" stroke="#000000" stroke-opacity="1" stroke-width="3.2"/>
<circle clip-path="url(#clip272)" cx="1042.45" cy="1208.92" r="14.4" fill="#009af9" fill-rule="evenodd" fill-opacity="1" stroke="#000000" stroke-opacity="1" stroke-width="3.2"/>
<circle clip-path="url(#clip272)" cx="1553.45" cy="748.886" r="14.4" fill="#009af9" fill-rule="evenodd" fill-opacity="1" stroke="#000000" stroke-opacity="1" stroke-width="3.2"/>
<circle clip-path="url(#clip272)" cx="465.168" cy="291.361" r="14.4" fill="#009af9" fill-rule="evenodd" fill-opacity="1" stroke="#000000" stroke-opacity="1" stroke-width="3.2"/>
<circle clip-path="url(#clip272)" cx="633.235" cy="330.419" r="14.4" fill="#009af9" fill-rule="evenodd" fill-opacity="1" stroke="#000000" stroke-opacity="1" stroke-width="3.2"/>
<circle clip-path="url(#clip272)" cx="1894.02" cy="87.9763" r="14.4" fill="#009af9" fill-rule="evenodd" fill-opacity="1" stroke="#000000" stroke-opacity="1" stroke-width="3.2"/>
<circle clip-path="url(#clip272)" cx="1323.79" cy="1357.61" r="14.4" fill="#009af9" fill-rule="evenodd" fill-opacity="1" stroke="#000000" stroke-opacity="1" stroke-width="3.2"/>
<circle clip-path="url(#clip272)" cx="1214.3" cy="1243.27" r="14.4" fill="#009af9" fill-rule="evenodd" fill-opacity="1" stroke="#000000" stroke-opacity="1" stroke-width="3.2"/>
<circle clip-path="url(#clip272)" cx="1165.98" cy="1399.95" r="14.4" fill="#009af9" fill-rule="evenodd" fill-opacity="1" stroke="#000000" stroke-opacity="1" stroke-width="3.2"/>
<circle clip-path="url(#clip272)" cx="2291.66" cy="928" r="14.4" fill="#009af9" fill-rule="evenodd" fill-opacity="1" stroke="#000000" stroke-opacity="1" stroke-width="3.2"/>
<circle clip-path="url(#clip272)" cx="721.833" cy="350.252" r="14.4" fill="#009af9" fill-rule="evenodd" fill-opacity="1" stroke="#000000" stroke-opacity="1" stroke-width="3.2"/>
<circle clip-path="url(#clip272)" cx="811.301" cy="633.485" r="14.4" fill="#009af9" fill-rule="evenodd" fill-opacity="1" stroke="#000000" stroke-opacity="1" stroke-width="3.2"/>
<circle clip-path="url(#clip272)" cx="318.044" cy="568.856" r="14.4" fill="#009af9" fill-rule="evenodd" fill-opacity="1" stroke="#000000" stroke-opacity="1" stroke-width="3.2"/>
<circle clip-path="url(#clip272)" cx="1182.81" cy="1295.54" r="14.4" fill="#009af9" fill-rule="evenodd" fill-opacity="1" stroke="#000000" stroke-opacity="1" stroke-width="3.2"/>
<circle clip-path="url(#clip272)" cx="627.654" cy="144.511" r="14.4" fill="#009af9" fill-rule="evenodd" fill-opacity="1" stroke="#000000" stroke-opacity="1" stroke-width="3.2"/>
<circle clip-path="url(#clip272)" cx="2101.1" cy="642.359" r="14.4" fill="#009af9" fill-rule="evenodd" fill-opacity="1" stroke="#000000" stroke-opacity="1" stroke-width="3.2"/>
<circle clip-path="url(#clip272)" cx="2058.62" cy="393.789" r="14.4" fill="#009af9" fill-rule="evenodd" fill-opacity="1" stroke="#000000" stroke-opacity="1" stroke-width="3.2"/>
<circle clip-path="url(#clip272)" cx="1606.83" cy="500.828" r="14.4" fill="#009af9" fill-rule="evenodd" fill-opacity="1" stroke="#000000" stroke-opacity="1" stroke-width="3.2"/>
<circle clip-path="url(#clip272)" cx="2167.63" cy="660.304" r="14.4" fill="#009af9" fill-rule="evenodd" fill-opacity="1" stroke="#000000" stroke-opacity="1" stroke-width="3.2"/>
<circle clip-path="url(#clip272)" cx="480.813" cy="405.201" r="14.4" fill="#009af9" fill-rule="evenodd" fill-opacity="1" stroke="#000000" stroke-opacity="1" stroke-width="3.2"/>
<circle clip-path="url(#clip272)" cx="2040.9" cy="388.361" r="14.4" fill="#009af9" fill-rule="evenodd" fill-opacity="1" stroke="#000000" stroke-opacity="1" stroke-width="3.2"/>
<circle clip-path="url(#clip272)" cx="1961.29" cy="242.047" r="14.4" fill="#009af9" fill-rule="evenodd" fill-opacity="1" stroke="#000000" stroke-opacity="1" stroke-width="3.2"/>
<circle clip-path="url(#clip272)" cx="1715.26" cy="283.689" r="14.4" fill="#009af9" fill-rule="evenodd" fill-opacity="1" stroke="#000000" stroke-opacity="1" stroke-width="3.2"/>
<circle clip-path="url(#clip272)" cx="604.059" cy="194.183" r="14.4" fill="#009af9" fill-rule="evenodd" fill-opacity="1" stroke="#000000" stroke-opacity="1" stroke-width="3.2"/>
<circle clip-path="url(#clip272)" cx="979.364" cy="987.309" r="14.4" fill="#009af9" fill-rule="evenodd" fill-opacity="1" stroke="#000000" stroke-opacity="1" stroke-width="3.2"/>
<circle clip-path="url(#clip272)" cx="2117.17" cy="490.226" r="14.4" fill="#009af9" fill-rule="evenodd" fill-opacity="1" stroke="#000000" stroke-opacity="1" stroke-width="3.2"/>
<circle clip-path="url(#clip272)" cx="2270.44" cy="1137.12" r="14.4" fill="#009af9" fill-rule="evenodd" fill-opacity="1" stroke="#000000" stroke-opacity="1" stroke-width="3.2"/>
<circle clip-path="url(#clip272)" cx="1905.07" cy="199.355" r="14.4" fill="#009af9" fill-rule="evenodd" fill-opacity="1" stroke="#000000" stroke-opacity="1" stroke-width="3.2"/>
<circle clip-path="url(#clip272)" cx="1015.3" cy="1113.8" r="14.4" fill="#009af9" fill-rule="evenodd" fill-opacity="1" stroke="#000000" stroke-opacity="1" stroke-width="3.2"/>
<circle clip-path="url(#clip272)" cx="1734.02" cy="435.835" r="14.4" fill="#009af9" fill-rule="evenodd" fill-opacity="1" stroke="#000000" stroke-opacity="1" stroke-width="3.2"/>
<circle clip-path="url(#clip272)" cx="1579.14" cy="558.798" r="14.4" fill="#009af9" fill-rule="evenodd" fill-opacity="1" stroke="#000000" stroke-opacity="1" stroke-width="3.2"/>
<circle clip-path="url(#clip272)" cx="851.329" cy="735.38" r="14.4" fill="#009af9" fill-rule="evenodd" fill-opacity="1" stroke="#000000" stroke-opacity="1" stroke-width="3.2"/>
<circle clip-path="url(#clip272)" cx="488.92" cy="267.697" r="14.4" fill="#009af9" fill-rule="evenodd" fill-opacity="1" stroke="#000000" stroke-opacity="1" stroke-width="3.2"/>
<circle clip-path="url(#clip272)" cx="2038.24" cy="286.179" r="14.4" fill="#009af9" fill-rule="evenodd" fill-opacity="1" stroke="#000000" stroke-opacity="1" stroke-width="3.2"/>
<circle clip-path="url(#clip272)" cx="678.177" cy="172.319" r="14.4" fill="#009af9" fill-rule="evenodd" fill-opacity="1" stroke="#000000" stroke-opacity="1" stroke-width="3.2"/>
<circle clip-path="url(#clip272)" cx="1944" cy="314.409" r="14.4" fill="#009af9" fill-rule="evenodd" fill-opacity="1" stroke="#000000" stroke-opacity="1" stroke-width="3.2"/>
<circle clip-path="url(#clip272)" cx="1700.6" cy="375.126" r="14.4" fill="#009af9" fill-rule="evenodd" fill-opacity="1" stroke="#000000" stroke-opacity="1" stroke-width="3.2"/>
<circle clip-path="url(#clip272)" cx="1866.06" cy="220.634" r="14.4" fill="#009af9" fill-rule="evenodd" fill-opacity="1" stroke="#000000" stroke-opacity="1" stroke-width="3.2"/>
<circle clip-path="url(#clip272)" cx="1474.8" cy="914.998" r="14.4" fill="#009af9" fill-rule="evenodd" fill-opacity="1" stroke="#000000" stroke-opacity="1" stroke-width="3.2"/>
<circle clip-path="url(#clip272)" cx="1618.66" cy="527.125" r="14.4" fill="#009af9" fill-rule="evenodd" fill-opacity="1" stroke="#000000" stroke-opacity="1" stroke-width="3.2"/>
<circle clip-path="url(#clip272)" cx="1466.65" cy="836.481" r="14.4" fill="#009af9" fill-rule="evenodd" fill-opacity="1" stroke="#000000" stroke-opacity="1" stroke-width="3.2"/>
<circle clip-path="url(#clip272)" cx="2267.97" cy="998.562" r="14.4" fill="#009af9" fill-rule="evenodd" fill-opacity="1" stroke="#000000" stroke-opacity="1" stroke-width="3.2"/>
<circle clip-path="url(#clip272)" cx="751.311" cy="281.927" r="14.4" fill="#009af9" fill-rule="evenodd" fill-opacity="1" stroke="#000000" stroke-opacity="1" stroke-width="3.2"/>
<circle clip-path="url(#clip272)" cx="476.481" cy="290.915" r="14.4" fill="#009af9" fill-rule="evenodd" fill-opacity="1" stroke="#000000" stroke-opacity="1" stroke-width="3.2"/>
<circle clip-path="url(#clip272)" cx="554.535" cy="319.215" r="14.4" fill="#009af9" fill-rule="evenodd" fill-opacity="1" stroke="#000000" stroke-opacity="1" stroke-width="3.2"/>
<circle clip-path="url(#clip272)" cx="257.45" cy="723.205" r="14.4" fill="#009af9" fill-rule="evenodd" fill-opacity="1" stroke="#000000" stroke-opacity="1" stroke-width="3.2"/>
<circle clip-path="url(#clip272)" cx="1222.94" cy="1439.48" r="14.4" fill="#009af9" fill-rule="evenodd" fill-opacity="1" stroke="#000000" stroke-opacity="1" stroke-width="3.2"/>
<circle clip-path="url(#clip272)" cx="1188.59" cy="1445.72" r="14.4" fill="#009af9" fill-rule="evenodd" fill-opacity="1" stroke="#000000" stroke-opacity="1" stroke-width="3.2"/>
<circle clip-path="url(#clip272)" cx="719.645" cy="228.232" r="14.4" fill="#009af9" fill-rule="evenodd" fill-opacity="1" stroke="#000000" stroke-opacity="1" stroke-width="3.2"/>
<circle clip-path="url(#clip272)" cx="1461.03" cy="909.927" r="14.4" fill="#009af9" fill-rule="evenodd" fill-opacity="1" stroke="#000000" stroke-opacity="1" stroke-width="3.2"/>
<circle clip-path="url(#clip272)" cx="563.478" cy="304.326" r="14.4" fill="#009af9" fill-rule="evenodd" fill-opacity="1" stroke="#000000" stroke-opacity="1" stroke-width="3.2"/>
<circle clip-path="url(#clip272)" cx="1241.09" cy="1253.94" r="14.4" fill="#009af9" fill-rule="evenodd" fill-opacity="1" stroke="#000000" stroke-opacity="1" stroke-width="3.2"/>
<circle clip-path="url(#clip272)" cx="513.984" cy="331.428" r="14.4" fill="#009af9" fill-rule="evenodd" fill-opacity="1" stroke="#000000" stroke-opacity="1" stroke-width="3.2"/>
<circle clip-path="url(#clip272)" cx="300.816" cy="651.973" r="14.4" fill="#009af9" fill-rule="evenodd" fill-opacity="1" stroke="#000000" stroke-opacity="1" stroke-width="3.2"/>
<circle clip-path="url(#clip272)" cx="2193.58" cy="717.122" r="14.4" fill="#009af9" fill-rule="evenodd" fill-opacity="1" stroke="#000000" stroke-opacity="1" stroke-width="3.2"/>
<circle clip-path="url(#clip272)" cx="1477.99" cy="817.843" r="14.4" fill="#009af9" fill-rule="evenodd" fill-opacity="1" stroke="#000000" stroke-opacity="1" stroke-width="3.2"/>
<circle clip-path="url(#clip272)" cx="1776.27" cy="374.17" r="14.4" fill="#009af9" fill-rule="evenodd" fill-opacity="1" stroke="#000000" stroke-opacity="1" stroke-width="3.2"/>
<circle clip-path="url(#clip272)" cx="2282.41" cy="1108.65" r="14.4" fill="#009af9" fill-rule="evenodd" fill-opacity="1" stroke="#000000" stroke-opacity="1" stroke-width="3.2"/>
<circle clip-path="url(#clip272)" cx="313.711" cy="581.862" r="14.4" fill="#009af9" fill-rule="evenodd" fill-opacity="1" stroke="#000000" stroke-opacity="1" stroke-width="3.2"/>
<circle clip-path="url(#clip272)" cx="1854.26" cy="101.547" r="14.4" fill="#009af9" fill-rule="evenodd" fill-opacity="1" stroke="#000000" stroke-opacity="1" stroke-width="3.2"/>
<circle clip-path="url(#clip272)" cx="802.965" cy="501.619" r="14.4" fill="#009af9" fill-rule="evenodd" fill-opacity="1" stroke="#000000" stroke-opacity="1" stroke-width="3.2"/>
<circle clip-path="url(#clip272)" cx="902.475" cy="653.298" r="14.4" fill="#009af9" fill-rule="evenodd" fill-opacity="1" stroke="#000000" stroke-opacity="1" stroke-width="3.2"/>
<circle clip-path="url(#clip272)" cx="559.247" cy="127.342" r="14.4" fill="#009af9" fill-rule="evenodd" fill-opacity="1" stroke="#000000" stroke-opacity="1" stroke-width="3.2"/>
<circle clip-path="url(#clip272)" cx="970.809" cy="880.128" r="14.4" fill="#009af9" fill-rule="evenodd" fill-opacity="1" stroke="#000000" stroke-opacity="1" stroke-width="3.2"/>
<circle clip-path="url(#clip272)" cx="1368.56" cy="1125.94" r="14.4" fill="#009af9" fill-rule="evenodd" fill-opacity="1" stroke="#000000" stroke-opacity="1" stroke-width="3.2"/>
<circle clip-path="url(#clip272)" cx="1508.69" cy="790.887" r="14.4" fill="#009af9" fill-rule="evenodd" fill-opacity="1" stroke="#000000" stroke-opacity="1" stroke-width="3.2"/>
<circle clip-path="url(#clip272)" cx="1429.89" cy="1038.44" r="14.4" fill="#009af9" fill-rule="evenodd" fill-opacity="1" stroke="#000000" stroke-opacity="1" stroke-width="3.2"/>
<circle clip-path="url(#clip272)" cx="1916.98" cy="235.776" r="14.4" fill="#009af9" fill-rule="evenodd" fill-opacity="1" stroke="#000000" stroke-opacity="1" stroke-width="3.2"/>
<circle clip-path="url(#clip272)" cx="2258.64" cy="1028.09" r="14.4" fill="#009af9" fill-rule="evenodd" fill-opacity="1" stroke="#000000" stroke-opacity="1" stroke-width="3.2"/>
<circle clip-path="url(#clip272)" cx="1072.21" cy="1331.14" r="14.4" fill="#009af9" fill-rule="evenodd" fill-opacity="1" stroke="#000000" stroke-opacity="1" stroke-width="3.2"/>
<circle clip-path="url(#clip272)" cx="1886.74" cy="153.198" r="14.4" fill="#009af9" fill-rule="evenodd" fill-opacity="1" stroke="#000000" stroke-opacity="1" stroke-width="3.2"/>
<circle clip-path="url(#clip272)" cx="1031.79" cy="1007.51" r="14.4" fill="#009af9" fill-rule="evenodd" fill-opacity="1" stroke="#000000" stroke-opacity="1" stroke-width="3.2"/>
<circle clip-path="url(#clip272)" cx="2110.04" cy="495.732" r="14.4" fill="#009af9" fill-rule="evenodd" fill-opacity="1" stroke="#000000" stroke-opacity="1" stroke-width="3.2"/>
<circle clip-path="url(#clip272)" cx="775.5" cy="345.392" r="14.4" fill="#009af9" fill-rule="evenodd" fill-opacity="1" stroke="#000000" stroke-opacity="1" stroke-width="3.2"/>
<circle clip-path="url(#clip272)" cx="555.183" cy="109.355" r="14.4" fill="#009af9" fill-rule="evenodd" fill-opacity="1" stroke="#000000" stroke-opacity="1" stroke-width="3.2"/>
<circle clip-path="url(#clip272)" cx="850.631" cy="580.887" r="14.4" fill="#009af9" fill-rule="evenodd" fill-opacity="1" stroke="#000000" stroke-opacity="1" stroke-width="3.2"/>
<circle clip-path="url(#clip272)" cx="1851.58" cy="119.254" r="14.4" fill="#009af9" fill-rule="evenodd" fill-opacity="1" stroke="#000000" stroke-opacity="1" stroke-width="3.2"/>
<circle clip-path="url(#clip272)" cx="716.108" cy="277.449" r="14.4" fill="#009af9" fill-rule="evenodd" fill-opacity="1" stroke="#000000" stroke-opacity="1" stroke-width="3.2"/>
<circle clip-path="url(#clip272)" cx="1492.91" cy="807.318" r="14.4" fill="#009af9" fill-rule="evenodd" fill-opacity="1" stroke="#000000" stroke-opacity="1" stroke-width="3.2"/>
<circle clip-path="url(#clip272)" cx="319.716" cy="548.72" r="14.4" fill="#009af9" fill-rule="evenodd" fill-opacity="1" stroke="#000000" stroke-opacity="1" stroke-width="3.2"/>
<circle clip-path="url(#clip272)" cx="2233.12" cy="785.322" r="14.4" fill="#009af9" fill-rule="evenodd" fill-opacity="1" stroke="#000000" stroke-opacity="1" stroke-width="3.2"/>
<circle clip-path="url(#clip272)" cx="797.472" cy="493.27" r="14.4" fill="#009af9" fill-rule="evenodd" fill-opacity="1" stroke="#000000" stroke-opacity="1" stroke-width="3.2"/>
<circle clip-path="url(#clip272)" cx="761.986" cy="533.014" r="14.4" fill="#009af9" fill-rule="evenodd" fill-opacity="1" stroke="#000000" stroke-opacity="1" stroke-width="3.2"/>
<circle clip-path="url(#clip272)" cx="706.511" cy="234.91" r="14.4" fill="#009af9" fill-rule="evenodd" fill-opacity="1" stroke="#000000" stroke-opacity="1" stroke-width="3.2"/>
<circle clip-path="url(#clip272)" cx="2006.8" cy="355.436" r="14.4" fill="#009af9" fill-rule="evenodd" fill-opacity="1" stroke="#000000" stroke-opacity="1" stroke-width="3.2"/>
<circle clip-path="url(#clip272)" cx="255.035" cy="814.275" r="14.4" fill="#009af9" fill-rule="evenodd" fill-opacity="1" stroke="#000000" stroke-opacity="1" stroke-width="3.2"/>
<circle clip-path="url(#clip272)" cx="692.35" cy="315.583" r="14.4" fill="#009af9" fill-rule="evenodd" fill-opacity="1" stroke="#000000" stroke-opacity="1" stroke-width="3.2"/>
<circle clip-path="url(#clip272)" cx="615.266" cy="317.506" r="14.4" fill="#009af9" fill-rule="evenodd" fill-opacity="1" stroke="#000000" stroke-opacity="1" stroke-width="3.2"/>
<circle clip-path="url(#clip272)" cx="2218.05" cy="835.513" r="14.4" fill="#009af9" fill-rule="evenodd" fill-opacity="1" stroke="#000000" stroke-opacity="1" stroke-width="3.2"/>
<circle clip-path="url(#clip272)" cx="349.663" cy="383.597" r="14.4" fill="#009af9" fill-rule="evenodd" fill-opacity="1" stroke="#000000" stroke-opacity="1" stroke-width="3.2"/>
<circle clip-path="url(#clip272)" cx="1301.59" cy="1171.82" r="14.4" fill="#009af9" fill-rule="evenodd" fill-opacity="1" stroke="#000000" stroke-opacity="1" stroke-width="3.2"/>
<circle clip-path="url(#clip272)" cx="1945.55" cy="324.075" r="14.4" fill="#009af9" fill-rule="evenodd" fill-opacity="1" stroke="#000000" stroke-opacity="1" stroke-width="3.2"/>
<circle clip-path="url(#clip272)" cx="1657.68" cy="525.345" r="14.4" fill="#009af9" fill-rule="evenodd" fill-opacity="1" stroke="#000000" stroke-opacity="1" stroke-width="3.2"/>
<circle clip-path="url(#clip272)" cx="2286.07" cy="954.992" r="14.4" fill="#009af9" fill-rule="evenodd" fill-opacity="1" stroke="#000000" stroke-opacity="1" stroke-width="3.2"/>
<circle clip-path="url(#clip272)" cx="572.32" cy="331.518" r="14.4" fill="#009af9" fill-rule="evenodd" fill-opacity="1" stroke="#000000" stroke-opacity="1" stroke-width="3.2"/>
<circle clip-path="url(#clip272)" cx="1574.4" cy="629.763" r="14.4" fill="#009af9" fill-rule="evenodd" fill-opacity="1" stroke="#000000" stroke-opacity="1" stroke-width="3.2"/>
<circle clip-path="url(#clip272)" cx="1472.61" cy="854.58" r="14.4" fill="#009af9" fill-rule="evenodd" fill-opacity="1" stroke="#000000" stroke-opacity="1" stroke-width="3.2"/>
<polyline clip-path="url(#clip272)" style="stroke:#ff0000; stroke-linecap:round; stroke-linejoin:round; stroke-width:4; stroke-opacity:1; fill:none" points="255.035,740.661 275.454,679.974 295.872,623.143 316.291,570.223 336.71,521.268 357.129,476.327 377.548,435.364 397.967,398.35 418.386,365.268 438.805,336.103 459.224,310.839 479.643,289.46 500.061,271.95 520.48,258.329 540.899,248.944 561.318,243.486 581.737,241.6 602.156,243.988 622.575,250.583 642.994,261.111 663.413,275.298 683.832,292.871 704.25,314.951 724.669,345.608 745.088,381.182 765.507,417.175 785.926,451.533 806.345,494.134 826.764,543.553 847.183,596.161 867.602,648.326 888.021,696.417 908.439,737.939 928.858,787.87 949.277,848.605 969.696,915.812 990.115,985.16 1010.53,1052.32 1030.95,1112.96 1051.37,1162.75 1071.79,1197.36 1092.21,1221.74 1112.63,1244.02 1133.05,1263.53 1153.47,1279.61 1173.89,1291.57 1194.3,1298.74 1214.72,1300.46 1235.14,1295.36 1255.56,1280.76 1275.98,1257.66 1296.4,1227.45 1316.82,1191.48 1337.24,1151.13 1357.66,1107.77 1378.07,1062.77 1398.49,1017.5 1418.91,973.342 1439.33,931.656 1459.75,893.817 1480.17,856.287 1500.59,807.44 1521.01,754.186 1541.43,704.843 1561.84,665.42 1582.26,622.412 1602.68,575.006 1623.1,526.852 1643.52,481.601 1663.94,442.905 1684.36,412.501 1704.78,381.981 1725.2,350.911 1745.61,320.568 1766.03,292.229 1786.45,267.171 1806.87,246.672 1827.29,232.01 1847.71,224.461 1868.13,223.977 1888.55,227.209 1908.97,234.1 1929.38,244.871 1949.8,259.728 1970.22,278.395 1990.64,300.732 2011.06,326.796 2031.48,356.643 2051.9,390.328 2072.32,427.908 2092.74,469.439 2113.15,514.939 2133.57,564.282 2153.99,617.458 2174.41,674.474 2194.83,735.338 2215.25,800.057 2235.67,868.64 2256.09,941.172 2276.51,1017.6 "/>
<polyline clip-path="url(#clip272)" style="stroke:#0000ff; stroke-linecap:round; stroke-linejoin:round; stroke-width:4; stroke-opacity:1; fill:none" points="255.035,792.015 275.454,723.575 295.872,662.457 316.291,606.244 336.71,555.864 357.129,511.873 377.548,474.761 397.967,442.864 418.386,416.516 438.805,392.518 459.224,373.968 479.643,358.858 500.061,347.201 520.48,339.179 540.899,333.858 561.318,331.528 581.737,332.005 602.156,336.16 622.575,343.479 642.994,353.526 663.413,366.939 683.832,383.637 704.25,403.356 724.669,425.676 745.088,452.665 765.507,483.587 785.926,520.762 806.345,562.784 826.764,609.751 847.183,661.023 867.602,716.338 888.021,776.867 908.439,837.973 928.858,900.426 949.277,962.624 969.696,1023.64 990.115,1079.9 1010.53,1132.6 1030.95,1179.42 1051.37,1219.62 1071.79,1252.96 1092.21,1277.49 1112.63,1302.15 1133.05,1325.8 1153.47,1345.6 1173.89,1357.78 1194.3,1361.97 1214.72,1359.55 1235.14,1350.94 1255.56,1334.84 1275.98,1311.89 1296.4,1283.96 1316.82,1256.21 1337.24,1227.74 1357.66,1190.85 1378.07,1147.62 1398.49,1100.29 1418.91,1051.23 1439.33,1003.54 1459.75,957.331 1480.17,913.771 1500.59,869.019 1521.01,823.721 1541.43,774.672 1561.84,726.997 1582.26,682.003 1602.68,636.052 1623.1,592.354 1643.52,551.185 1663.94,511.657 1684.36,476.33 1704.78,443.067 1725.2,413.126 1745.61,387.37 1766.03,365.408 1786.45,346.241 1806.87,333.262 1827.29,323.425 1847.71,316.844 1868.13,314.043 1888.55,315.636 1908.97,320.172 1929.38,329.456 1949.8,341.722 1970.22,357.86 1990.64,377.317 2011.06,398.836 2031.48,424.614 2051.9,453.708 2072.32,486.53 2092.74,523.487 2113.15,563.704 2133.57,609.777 2153.99,661.885 2174.41,720.419 2194.83,785.066 2215.25,855.827 2235.67,930.634 2256.09,1010.66 2276.51,1092.84 "/>
<polyline clip-path="url(#clip272)" style="stroke:#0000ff; stroke-linecap:round; stroke-linejoin:round; stroke-width:4; stroke-opacity:1; fill:none" points="255.035,634.883 275.454,571.704 295.872,533.229 316.291,480.581 336.71,440.829 357.129,409.493 377.548,383.811 397.967,354.536 418.386,325.624 438.805,297.8 459.224,272.115 479.643,249.481 500.061,231.054 520.48,216.934 540.899,207.341 561.318,201.901 581.737,200.148 602.156,203.034 622.575,209.979 642.994,220.242 663.413,234.878 683.832,252.35 704.25,273.692 724.669,297.82 745.088,327.832 765.507,361.16 785.926,398.681 806.345,440.69 826.764,484.102 847.183,529.502 867.602,573.379 888.021,620.127 908.439,667.635 928.858,717.857 949.277,769.039 969.696,820.656 990.115,871.103 1010.53,919.327 1030.95,965.78 1051.37,1008.28 1071.79,1046.74 1092.21,1079.12 1112.63,1103.81 1133.05,1118.91 1153.47,1132.07 1173.89,1141.97 1194.3,1150.01 1214.72,1146.39 1235.14,1138.71 1255.56,1127.83 1275.98,1112.47 1296.4,1094.51 1316.82,1071.32 1337.24,1045.26 1357.66,1019.18 1378.07,987.436 1398.49,951.047 1418.91,913.254 1439.33,874.983 1459.75,835.043 1480.17,794.597 1500.59,752.139 1521.01,707.759 1541.43,660.558 1561.84,614.967 1582.26,572.944 1602.68,528.83 1623.1,484.054 1643.52,436.97 1663.94,393.52 1684.36,352.511 1704.78,316.393 1725.2,286.62 1745.61,258.943 1766.03,235.362 1786.45,214.56 1806.87,196.829 1827.29,183.582 1847.71,175.336 1868.13,174.242 1888.55,176.775 1908.97,185.169 1929.38,197.475 1949.8,213.677 1970.22,233.621 1990.64,257.616 2011.06,285.121 2031.48,316.196 2051.9,351.154 2072.32,389.921 2092.74,432.256 2113.15,476.965 2133.57,524.675 2153.99,575.876 2174.41,629.378 2194.83,684.845 2215.25,742.391 2235.67,804.227 2256.09,867.005 2276.51,932.165 "/>
<path clip-path="url(#clip270)" d="M265.897 1438.47 L1050.16 1438.47 L1050.16 1282.95 L265.897 1282.95  Z" fill="#ffffff" fill-rule="evenodd" fill-opacity="1"/>
<polyline clip-path="url(#clip270)" style="stroke:#000000; stroke-linecap:round; stroke-linejoin:round; stroke-width:4; stroke-opacity:1; fill:none" points="265.897,1438.47 1050.16,1438.47 1050.16,1282.95 265.897,1282.95 265.897,1438.47 "/>
<polyline clip-path="url(#clip270)" style="stroke:#ff0000; stroke-linecap:round; stroke-linejoin:round; stroke-width:4; stroke-opacity:1; fill:none" points="289.884,1334.79 433.805,1334.79 "/>
<path clip-path="url(#clip270)" d="M457.792 1317.51 L462.468 1317.51 L462.468 1348.14 L479.296 1348.14 L479.296 1352.07 L457.792 1352.07 L457.792 1317.51 Z" fill="#000000" fill-rule="nonzero" fill-opacity="1" /><path clip-path="url(#clip270)" d="M496.542 1320.69 Q491.449 1320.69 488.44 1324.48 Q485.454 1328.28 485.454 1334.83 Q485.454 1341.36 488.44 1345.15 Q491.449 1348.95 496.542 1348.95 Q501.634 1348.95 504.597 1345.15 Q507.583 1341.36 507.583 1334.83 Q507.583 1328.28 504.597 1324.48 Q501.634 1320.69 496.542 1320.69 M496.542 1316.89 Q503.81 1316.89 508.162 1321.77 Q512.514 1326.63 512.514 1334.83 Q512.514 1343 508.162 1347.88 Q503.81 1352.75 496.542 1352.75 Q489.25 1352.75 484.875 1347.88 Q480.523 1343.02 480.523 1334.83 Q480.523 1326.63 484.875 1321.77 Q489.25 1316.89 496.542 1316.89 Z" fill="#000000" fill-rule="nonzero" fill-opacity="1" /><path clip-path="url(#clip270)" d="M519.828 1317.51 L541.68 1317.51 L541.68 1321.45 L524.504 1321.45 L524.504 1331.68 L540.963 1331.68 L540.963 1335.62 L524.504 1335.62 L524.504 1348.14 L542.097 1348.14 L542.097 1352.07 L519.828 1352.07 L519.828 1317.51 Z" fill="#000000" fill-rule="nonzero" fill-opacity="1" /><path clip-path="url(#clip270)" d="M570.499 1318.65 L570.499 1323.21 Q567.837 1321.94 565.476 1321.31 Q563.115 1320.69 560.916 1320.69 Q557.097 1320.69 555.013 1322.17 Q552.953 1323.65 552.953 1326.38 Q552.953 1328.67 554.319 1329.85 Q555.708 1331.01 559.55 1331.73 L562.375 1332.31 Q567.606 1333.3 570.083 1335.82 Q572.583 1338.32 572.583 1342.54 Q572.583 1347.56 569.203 1350.15 Q565.847 1352.75 559.342 1352.75 Q556.888 1352.75 554.111 1352.19 Q551.356 1351.63 548.393 1350.55 L548.393 1345.73 Q551.24 1347.33 553.972 1348.14 Q556.703 1348.95 559.342 1348.95 Q563.347 1348.95 565.523 1347.38 Q567.699 1345.8 567.699 1342.88 Q567.699 1340.34 566.125 1338.9 Q564.574 1337.47 561.009 1336.75 L558.162 1336.19 Q552.93 1335.15 550.592 1332.93 Q548.254 1330.71 548.254 1326.75 Q548.254 1322.17 551.472 1319.53 Q554.713 1316.89 560.384 1316.89 Q562.814 1316.89 565.337 1317.33 Q567.861 1317.77 570.499 1318.65 Z" fill="#000000" fill-rule="nonzero" fill-opacity="1" /><path clip-path="url(#clip270)" d="M600.592 1318.65 L600.592 1323.21 Q597.93 1321.94 595.569 1321.31 Q593.208 1320.69 591.009 1320.69 Q587.189 1320.69 585.106 1322.17 Q583.046 1323.65 583.046 1326.38 Q583.046 1328.67 584.411 1329.85 Q585.8 1331.01 589.643 1331.73 L592.467 1332.31 Q597.698 1333.3 600.175 1335.82 Q602.675 1338.32 602.675 1342.54 Q602.675 1347.56 599.296 1350.15 Q595.939 1352.75 589.435 1352.75 Q586.981 1352.75 584.203 1352.19 Q581.449 1351.63 578.486 1350.55 L578.486 1345.73 Q581.333 1347.33 584.064 1348.14 Q586.796 1348.95 589.435 1348.95 Q593.439 1348.95 595.615 1347.38 Q597.791 1345.8 597.791 1342.88 Q597.791 1340.34 596.217 1338.9 Q594.666 1337.47 591.101 1336.75 L588.254 1336.19 Q583.023 1335.15 580.685 1332.93 Q578.347 1330.71 578.347 1326.75 Q578.347 1322.17 581.564 1319.53 Q584.805 1316.89 590.476 1316.89 Q592.907 1316.89 595.43 1317.33 Q597.953 1317.77 600.592 1318.65 Z" fill="#000000" fill-rule="nonzero" fill-opacity="1" /><path clip-path="url(#clip270)" d="M639.874 1330.13 Q639.157 1329.71 638.3 1329.53 Q637.467 1329.32 636.448 1329.32 Q632.837 1329.32 630.893 1331.68 Q628.971 1334.02 628.971 1338.42 L628.971 1352.07 L624.689 1352.07 L624.689 1326.15 L628.971 1326.15 L628.971 1330.18 Q630.314 1327.82 632.467 1326.68 Q634.62 1325.52 637.698 1325.52 Q638.138 1325.52 638.67 1325.59 Q639.203 1325.64 639.851 1325.76 L639.874 1330.13 Z" fill="#000000" fill-rule="nonzero" fill-opacity="1" /><path clip-path="url(#clip270)" d="M665.476 1338.05 L665.476 1340.13 L645.893 1340.13 Q646.17 1344.53 648.531 1346.84 Q650.916 1349.13 655.152 1349.13 Q657.606 1349.13 659.897 1348.53 Q662.212 1347.93 664.48 1346.73 L664.48 1350.75 Q662.189 1351.73 659.781 1352.24 Q657.374 1352.75 654.897 1352.75 Q648.694 1352.75 645.059 1349.13 Q641.448 1345.52 641.448 1339.37 Q641.448 1333 644.874 1329.27 Q648.323 1325.52 654.156 1325.52 Q659.388 1325.52 662.42 1328.9 Q665.476 1332.26 665.476 1338.05 M661.217 1336.8 Q661.17 1333.3 659.249 1331.22 Q657.351 1329.13 654.203 1329.13 Q650.638 1329.13 648.485 1331.15 Q646.356 1333.16 646.031 1336.82 L661.217 1336.8 Z" fill="#000000" fill-rule="nonzero" fill-opacity="1" /><path clip-path="url(#clip270)" d="M689.527 1338.81 Q689.527 1334.18 687.605 1331.63 Q685.707 1329.09 682.258 1329.09 Q678.832 1329.09 676.911 1331.63 Q675.013 1334.18 675.013 1338.81 Q675.013 1343.42 676.911 1345.96 Q678.832 1348.51 682.258 1348.51 Q685.707 1348.51 687.605 1345.96 Q689.527 1343.42 689.527 1338.81 M693.786 1348.86 Q693.786 1355.48 690.846 1358.69 Q687.906 1361.94 681.841 1361.94 Q679.596 1361.94 677.605 1361.59 Q675.615 1361.26 673.74 1360.57 L673.74 1356.43 Q675.615 1357.44 677.443 1357.93 Q679.272 1358.42 681.17 1358.42 Q685.36 1358.42 687.443 1356.22 Q689.527 1354.04 689.527 1349.62 L689.527 1347.51 Q688.207 1349.81 686.147 1350.94 Q684.087 1352.07 681.216 1352.07 Q676.448 1352.07 673.531 1348.44 Q670.615 1344.81 670.615 1338.81 Q670.615 1332.79 673.531 1329.16 Q676.448 1325.52 681.216 1325.52 Q684.087 1325.52 686.147 1326.66 Q688.207 1327.79 689.527 1330.08 L689.527 1326.15 L693.786 1326.15 L693.786 1348.86 Z" fill="#000000" fill-rule="nonzero" fill-opacity="1" /><path clip-path="url(#clip270)" d="M717.582 1330.13 Q716.864 1329.71 716.008 1329.53 Q715.175 1329.32 714.156 1329.32 Q710.545 1329.32 708.601 1331.68 Q706.679 1334.02 706.679 1338.42 L706.679 1352.07 L702.397 1352.07 L702.397 1326.15 L706.679 1326.15 L706.679 1330.18 Q708.022 1327.82 710.175 1326.68 Q712.327 1325.52 715.406 1325.52 Q715.846 1325.52 716.378 1325.59 Q716.911 1325.64 717.559 1325.76 L717.582 1330.13 Z" fill="#000000" fill-rule="nonzero" fill-opacity="1" /><path clip-path="url(#clip270)" d="M743.184 1338.05 L743.184 1340.13 L723.601 1340.13 Q723.878 1344.53 726.239 1346.84 Q728.624 1349.13 732.86 1349.13 Q735.313 1349.13 737.605 1348.53 Q739.92 1347.93 742.188 1346.73 L742.188 1350.75 Q739.897 1351.73 737.489 1352.24 Q735.082 1352.75 732.605 1352.75 Q726.401 1352.75 722.767 1349.13 Q719.156 1345.52 719.156 1339.37 Q719.156 1333 722.582 1329.27 Q726.031 1325.52 731.864 1325.52 Q737.096 1325.52 740.128 1328.9 Q743.184 1332.26 743.184 1338.05 M738.925 1336.8 Q738.878 1333.3 736.957 1331.22 Q735.059 1329.13 731.911 1329.13 Q728.346 1329.13 726.193 1331.15 Q724.063 1333.16 723.739 1336.82 L738.925 1336.8 Z" fill="#000000" fill-rule="nonzero" fill-opacity="1" /><path clip-path="url(#clip270)" d="M766.702 1326.91 L766.702 1330.94 Q764.897 1330.01 762.952 1329.55 Q761.008 1329.09 758.924 1329.09 Q755.753 1329.09 754.156 1330.06 Q752.582 1331.03 752.582 1332.98 Q752.582 1334.46 753.716 1335.32 Q754.85 1336.15 758.276 1336.91 L759.735 1337.24 Q764.272 1338.21 766.17 1339.99 Q768.091 1341.75 768.091 1344.92 Q768.091 1348.53 765.221 1350.64 Q762.373 1352.75 757.373 1352.75 Q755.29 1352.75 753.022 1352.33 Q750.776 1351.94 748.276 1351.13 L748.276 1346.73 Q750.637 1347.95 752.929 1348.58 Q755.221 1349.18 757.466 1349.18 Q760.475 1349.18 762.096 1348.16 Q763.716 1347.12 763.716 1345.25 Q763.716 1343.51 762.536 1342.58 Q761.378 1341.66 757.42 1340.8 L755.938 1340.45 Q751.98 1339.62 750.221 1337.91 Q748.462 1336.17 748.462 1333.16 Q748.462 1329.51 751.054 1327.51 Q753.647 1325.52 758.415 1325.52 Q760.776 1325.52 762.86 1325.87 Q764.943 1326.22 766.702 1326.91 Z" fill="#000000" fill-rule="nonzero" fill-opacity="1" /><path clip-path="url(#clip270)" d="M791.401 1326.91 L791.401 1330.94 Q789.596 1330.01 787.651 1329.55 Q785.707 1329.09 783.623 1329.09 Q780.452 1329.09 778.855 1330.06 Q777.281 1331.03 777.281 1332.98 Q777.281 1334.46 778.415 1335.32 Q779.549 1336.15 782.975 1336.91 L784.434 1337.24 Q788.971 1338.21 790.869 1339.99 Q792.79 1341.75 792.79 1344.92 Q792.79 1348.53 789.92 1350.64 Q787.072 1352.75 782.072 1352.75 Q779.989 1352.75 777.721 1352.33 Q775.475 1351.94 772.975 1351.13 L772.975 1346.73 Q775.336 1347.95 777.628 1348.58 Q779.92 1349.18 782.165 1349.18 Q785.174 1349.18 786.795 1348.16 Q788.415 1347.12 788.415 1345.25 Q788.415 1343.51 787.234 1342.58 Q786.077 1341.66 782.119 1340.8 L780.637 1340.45 Q776.679 1339.62 774.92 1337.91 Q773.16 1336.17 773.16 1333.16 Q773.16 1329.51 775.753 1327.51 Q778.346 1325.52 783.114 1325.52 Q785.475 1325.52 787.559 1325.87 Q789.642 1326.22 791.401 1326.91 Z" fill="#000000" fill-rule="nonzero" fill-opacity="1" /><path clip-path="url(#clip270)" d="M799.572 1326.15 L803.832 1326.15 L803.832 1352.07 L799.572 1352.07 L799.572 1326.15 M799.572 1316.06 L803.832 1316.06 L803.832 1321.45 L799.572 1321.45 L799.572 1316.06 Z" fill="#000000" fill-rule="nonzero" fill-opacity="1" /><path clip-path="url(#clip270)" d="M822.79 1329.13 Q819.364 1329.13 817.373 1331.82 Q815.382 1334.48 815.382 1339.13 Q815.382 1343.79 817.35 1346.47 Q819.341 1349.13 822.79 1349.13 Q826.193 1349.13 828.183 1346.45 Q830.174 1343.76 830.174 1339.13 Q830.174 1334.53 828.183 1331.84 Q826.193 1329.13 822.79 1329.13 M822.79 1325.52 Q828.345 1325.52 831.517 1329.13 Q834.688 1332.75 834.688 1339.13 Q834.688 1345.5 831.517 1349.13 Q828.345 1352.75 822.79 1352.75 Q817.211 1352.75 814.04 1349.13 Q810.892 1345.5 810.892 1339.13 Q810.892 1332.75 814.04 1329.13 Q817.211 1325.52 822.79 1325.52 Z" fill="#000000" fill-rule="nonzero" fill-opacity="1" /><path clip-path="url(#clip270)" d="M863.299 1336.43 L863.299 1352.07 L859.04 1352.07 L859.04 1336.57 Q859.04 1332.88 857.604 1331.06 Q856.169 1329.23 853.299 1329.23 Q849.85 1329.23 847.859 1331.43 Q845.868 1333.63 845.868 1337.42 L845.868 1352.07 L841.586 1352.07 L841.586 1326.15 L845.868 1326.15 L845.868 1330.18 Q847.396 1327.84 849.456 1326.68 Q851.54 1325.52 854.248 1325.52 Q858.716 1325.52 861.007 1328.3 Q863.299 1331.06 863.299 1336.43 Z" fill="#000000" fill-rule="nonzero" fill-opacity="1" /><polyline clip-path="url(#clip270)" style="stroke:#0000ff; stroke-linecap:round; stroke-linejoin:round; stroke-width:4; stroke-opacity:1; fill:none" points="289.884,1386.63 433.805,1386.63 "/>
<path clip-path="url(#clip270)" d="M469.736 1372.43 Q466.125 1372.43 464.296 1376 Q462.491 1379.54 462.491 1386.67 Q462.491 1393.78 464.296 1397.34 Q466.125 1400.88 469.736 1400.88 Q473.37 1400.88 475.176 1397.34 Q477.005 1393.78 477.005 1386.67 Q477.005 1379.54 475.176 1376 Q473.37 1372.43 469.736 1372.43 M469.736 1368.73 Q475.546 1368.73 478.602 1373.34 Q481.681 1377.92 481.681 1386.67 Q481.681 1395.4 478.602 1400 Q475.546 1404.59 469.736 1404.59 Q463.926 1404.59 460.847 1400 Q457.792 1395.4 457.792 1386.67 Q457.792 1377.92 460.847 1373.34 Q463.926 1368.73 469.736 1368.73 Z" fill="#000000" fill-rule="nonzero" fill-opacity="1" /><path clip-path="url(#clip270)" d="M489.898 1398.03 L494.782 1398.03 L494.782 1403.91 L489.898 1403.91 L489.898 1398.03 Z" fill="#000000" fill-rule="nonzero" fill-opacity="1" /><path clip-path="url(#clip270)" d="M505.106 1403.2 L505.106 1398.94 Q506.866 1399.77 508.671 1400.21 Q510.477 1400.65 512.213 1400.65 Q516.842 1400.65 519.273 1397.55 Q521.727 1394.42 522.074 1388.08 Q520.731 1390.07 518.671 1391.14 Q516.611 1392.2 514.111 1392.2 Q508.926 1392.2 505.893 1389.08 Q502.884 1385.93 502.884 1380.49 Q502.884 1375.16 506.032 1371.95 Q509.18 1368.73 514.412 1368.73 Q520.407 1368.73 523.555 1373.34 Q526.727 1377.92 526.727 1386.67 Q526.727 1394.84 522.838 1399.72 Q518.972 1404.59 512.421 1404.59 Q510.662 1404.59 508.856 1404.24 Q507.051 1403.89 505.106 1403.2 M514.412 1388.54 Q517.56 1388.54 519.389 1386.39 Q521.24 1384.24 521.24 1380.49 Q521.24 1376.76 519.389 1374.61 Q517.56 1372.43 514.412 1372.43 Q511.264 1372.43 509.412 1374.61 Q507.583 1376.76 507.583 1380.49 Q507.583 1384.24 509.412 1386.39 Q511.264 1388.54 514.412 1388.54 Z" fill="#000000" fill-rule="nonzero" fill-opacity="1" /><path clip-path="url(#clip270)" d="M535.268 1403.2 L535.268 1398.94 Q537.027 1399.77 538.833 1400.21 Q540.639 1400.65 542.375 1400.65 Q547.004 1400.65 549.435 1397.55 Q551.888 1394.42 552.236 1388.08 Q550.893 1390.07 548.833 1391.14 Q546.773 1392.2 544.273 1392.2 Q539.088 1392.2 536.055 1389.08 Q533.046 1385.93 533.046 1380.49 Q533.046 1375.16 536.194 1371.95 Q539.342 1368.73 544.574 1368.73 Q550.569 1368.73 553.717 1373.34 Q556.888 1377.92 556.888 1386.67 Q556.888 1394.84 553 1399.72 Q549.134 1404.59 542.583 1404.59 Q540.824 1404.59 539.018 1404.24 Q537.213 1403.89 535.268 1403.2 M544.574 1388.54 Q547.722 1388.54 549.551 1386.39 Q551.402 1384.24 551.402 1380.49 Q551.402 1376.76 549.551 1374.61 Q547.722 1372.43 544.574 1372.43 Q541.426 1372.43 539.574 1374.61 Q537.745 1376.76 537.745 1380.49 Q537.745 1384.24 539.574 1386.39 Q541.426 1388.54 544.574 1388.54 Z" fill="#000000" fill-rule="nonzero" fill-opacity="1" /><path clip-path="url(#clip270)" d="M598.416 1378.98 L598.416 1382.97 Q596.61 1381.97 594.782 1381.48 Q592.976 1380.97 591.124 1380.97 Q586.981 1380.97 584.689 1383.61 Q582.398 1386.23 582.398 1390.97 Q582.398 1395.72 584.689 1398.36 Q586.981 1400.97 591.124 1400.97 Q592.976 1400.97 594.782 1400.49 Q596.61 1399.98 598.416 1398.98 L598.416 1402.92 Q596.634 1403.75 594.712 1404.17 Q592.814 1404.59 590.661 1404.59 Q584.805 1404.59 581.356 1400.91 Q577.907 1397.22 577.907 1390.97 Q577.907 1384.63 581.379 1381 Q584.874 1377.36 590.939 1377.36 Q592.907 1377.36 594.782 1377.78 Q596.657 1378.17 598.416 1378.98 Z" fill="#000000" fill-rule="nonzero" fill-opacity="1" /><path clip-path="url(#clip270)" d="M615.87 1380.97 Q612.444 1380.97 610.453 1383.66 Q608.462 1386.32 608.462 1390.97 Q608.462 1395.63 610.43 1398.31 Q612.421 1400.97 615.87 1400.97 Q619.272 1400.97 621.263 1398.29 Q623.254 1395.6 623.254 1390.97 Q623.254 1386.37 621.263 1383.68 Q619.272 1380.97 615.87 1380.97 M615.87 1377.36 Q621.425 1377.36 624.596 1380.97 Q627.768 1384.59 627.768 1390.97 Q627.768 1397.34 624.596 1400.97 Q621.425 1404.59 615.87 1404.59 Q610.291 1404.59 607.12 1400.97 Q603.972 1397.34 603.972 1390.97 Q603.972 1384.59 607.12 1380.97 Q610.291 1377.36 615.87 1377.36 Z" fill="#000000" fill-rule="nonzero" fill-opacity="1" /><path clip-path="url(#clip270)" d="M656.379 1388.27 L656.379 1403.91 L652.119 1403.91 L652.119 1388.41 Q652.119 1384.72 650.684 1382.9 Q649.249 1381.07 646.379 1381.07 Q642.93 1381.07 640.939 1383.27 Q638.948 1385.47 638.948 1389.26 L638.948 1403.91 L634.666 1403.91 L634.666 1377.99 L638.948 1377.99 L638.948 1382.02 Q640.476 1379.68 642.536 1378.52 Q644.619 1377.36 647.328 1377.36 Q651.795 1377.36 654.087 1380.14 Q656.379 1382.9 656.379 1388.27 Z" fill="#000000" fill-rule="nonzero" fill-opacity="1" /><path clip-path="url(#clip270)" d="M677.999 1367.9 L677.999 1371.44 L673.925 1371.44 Q671.633 1371.44 670.73 1372.36 Q669.851 1373.29 669.851 1375.7 L669.851 1377.99 L676.865 1377.99 L676.865 1381.3 L669.851 1381.3 L669.851 1403.91 L665.568 1403.91 L665.568 1381.3 L661.494 1381.3 L661.494 1377.99 L665.568 1377.99 L665.568 1376.18 Q665.568 1371.85 667.582 1369.89 Q669.596 1367.9 673.971 1367.9 L677.999 1367.9 Z" fill="#000000" fill-rule="nonzero" fill-opacity="1" /><path clip-path="url(#clip270)" d="M681.564 1377.99 L685.823 1377.99 L685.823 1403.91 L681.564 1403.91 L681.564 1377.99 M681.564 1367.9 L685.823 1367.9 L685.823 1373.29 L681.564 1373.29 L681.564 1367.9 Z" fill="#000000" fill-rule="nonzero" fill-opacity="1" /><path clip-path="url(#clip270)" d="M711.795 1381.92 L711.795 1367.9 L716.054 1367.9 L716.054 1403.91 L711.795 1403.91 L711.795 1400.03 Q710.452 1402.34 708.392 1403.47 Q706.355 1404.59 703.485 1404.59 Q698.786 1404.59 695.823 1400.84 Q692.883 1397.09 692.883 1390.97 Q692.883 1384.86 695.823 1381.11 Q698.786 1377.36 703.485 1377.36 Q706.355 1377.36 708.392 1378.5 Q710.452 1379.61 711.795 1381.92 M697.281 1390.97 Q697.281 1395.67 699.203 1398.36 Q701.147 1401.02 704.527 1401.02 Q707.906 1401.02 709.851 1398.36 Q711.795 1395.67 711.795 1390.97 Q711.795 1386.28 709.851 1383.61 Q707.906 1380.93 704.527 1380.93 Q701.147 1380.93 699.203 1383.61 Q697.281 1386.28 697.281 1390.97 Z" fill="#000000" fill-rule="nonzero" fill-opacity="1" /><path clip-path="url(#clip270)" d="M747.003 1389.89 L747.003 1391.97 L727.42 1391.97 Q727.698 1396.37 730.059 1398.68 Q732.443 1400.97 736.679 1400.97 Q739.133 1400.97 741.425 1400.37 Q743.739 1399.77 746.008 1398.57 L746.008 1402.59 Q743.716 1403.57 741.309 1404.08 Q738.901 1404.59 736.425 1404.59 Q730.221 1404.59 726.587 1400.97 Q722.976 1397.36 722.976 1391.21 Q722.976 1384.84 726.401 1381.11 Q729.85 1377.36 735.684 1377.36 Q740.915 1377.36 743.948 1380.74 Q747.003 1384.1 747.003 1389.89 M742.744 1388.64 Q742.698 1385.14 740.776 1383.06 Q738.878 1380.97 735.73 1380.97 Q732.165 1380.97 730.013 1382.99 Q727.883 1385 727.559 1388.66 L742.744 1388.64 Z" fill="#000000" fill-rule="nonzero" fill-opacity="1" /><path clip-path="url(#clip270)" d="M775.545 1388.27 L775.545 1403.91 L771.285 1403.91 L771.285 1388.41 Q771.285 1384.72 769.85 1382.9 Q768.415 1381.07 765.545 1381.07 Q762.096 1381.07 760.105 1383.27 Q758.114 1385.47 758.114 1389.26 L758.114 1403.91 L753.832 1403.91 L753.832 1377.99 L758.114 1377.99 L758.114 1382.02 Q759.642 1379.68 761.702 1378.52 Q763.785 1377.36 766.494 1377.36 Q770.961 1377.36 773.253 1380.14 Q775.545 1382.9 775.545 1388.27 Z" fill="#000000" fill-rule="nonzero" fill-opacity="1" /><path clip-path="url(#clip270)" d="M802.697 1378.98 L802.697 1382.97 Q800.892 1381.97 799.063 1381.48 Q797.258 1380.97 795.406 1380.97 Q791.262 1380.97 788.971 1383.61 Q786.679 1386.23 786.679 1390.97 Q786.679 1395.72 788.971 1398.36 Q791.262 1400.97 795.406 1400.97 Q797.258 1400.97 799.063 1400.49 Q800.892 1399.98 802.697 1398.98 L802.697 1402.92 Q800.915 1403.75 798.994 1404.17 Q797.096 1404.59 794.943 1404.59 Q789.086 1404.59 785.637 1400.91 Q782.188 1397.22 782.188 1390.97 Q782.188 1384.63 785.66 1381 Q789.156 1377.36 795.221 1377.36 Q797.188 1377.36 799.063 1377.78 Q800.938 1378.17 802.697 1378.98 Z" fill="#000000" fill-rule="nonzero" fill-opacity="1" /><path clip-path="url(#clip270)" d="M832.28 1389.89 L832.28 1391.97 L812.697 1391.97 Q812.975 1396.37 815.336 1398.68 Q817.72 1400.97 821.956 1400.97 Q824.41 1400.97 826.702 1400.37 Q829.017 1399.77 831.285 1398.57 L831.285 1402.59 Q828.993 1403.57 826.586 1404.08 Q824.179 1404.59 821.702 1404.59 Q815.498 1404.59 811.864 1400.97 Q808.253 1397.36 808.253 1391.21 Q808.253 1384.84 811.679 1381.11 Q815.128 1377.36 820.961 1377.36 Q826.193 1377.36 829.225 1380.74 Q832.28 1384.1 832.28 1389.89 M828.021 1388.64 Q827.975 1385.14 826.054 1383.06 Q824.156 1380.97 821.007 1380.97 Q817.443 1380.97 815.29 1382.99 Q813.16 1385 812.836 1388.66 L828.021 1388.64 Z" fill="#000000" fill-rule="nonzero" fill-opacity="1" /><path clip-path="url(#clip270)" d="M854.341 1377.99 L858.6 1377.99 L858.6 1403.91 L854.341 1403.91 L854.341 1377.99 M854.341 1367.9 L858.6 1367.9 L858.6 1373.29 L854.341 1373.29 L854.341 1367.9 Z" fill="#000000" fill-rule="nonzero" fill-opacity="1" /><path clip-path="url(#clip270)" d="M889.063 1388.27 L889.063 1403.91 L884.803 1403.91 L884.803 1388.41 Q884.803 1384.72 883.368 1382.9 Q881.933 1381.07 879.063 1381.07 Q875.614 1381.07 873.623 1383.27 Q871.632 1385.47 871.632 1389.26 L871.632 1403.91 L867.35 1403.91 L867.35 1377.99 L871.632 1377.99 L871.632 1382.02 Q873.16 1379.68 875.22 1378.52 Q877.303 1377.36 880.012 1377.36 Q884.479 1377.36 886.771 1380.14 Q889.063 1382.9 889.063 1388.27 Z" fill="#000000" fill-rule="nonzero" fill-opacity="1" /><path clip-path="url(#clip270)" d="M901.771 1370.63 L901.771 1377.99 L910.544 1377.99 L910.544 1381.3 L901.771 1381.3 L901.771 1395.37 Q901.771 1398.54 902.627 1399.45 Q903.507 1400.35 906.169 1400.35 L910.544 1400.35 L910.544 1403.91 L906.169 1403.91 Q901.238 1403.91 899.363 1402.09 Q897.488 1400.23 897.488 1395.37 L897.488 1381.3 L894.363 1381.3 L894.363 1377.99 L897.488 1377.99 L897.488 1370.63 L901.771 1370.63 Z" fill="#000000" fill-rule="nonzero" fill-opacity="1" /><path clip-path="url(#clip270)" d="M938.322 1389.89 L938.322 1391.97 L918.738 1391.97 Q919.016 1396.37 921.377 1398.68 Q923.761 1400.97 927.998 1400.97 Q930.451 1400.97 932.743 1400.37 Q935.058 1399.77 937.326 1398.57 L937.326 1402.59 Q935.035 1403.57 932.627 1404.08 Q930.22 1404.59 927.743 1404.59 Q921.539 1404.59 917.905 1400.97 Q914.294 1397.36 914.294 1391.21 Q914.294 1384.84 917.72 1381.11 Q921.169 1377.36 927.002 1377.36 Q932.234 1377.36 935.266 1380.74 Q938.322 1384.1 938.322 1389.89 M934.062 1388.64 Q934.016 1385.14 932.095 1383.06 Q930.197 1380.97 927.049 1380.97 Q923.484 1380.97 921.331 1382.99 Q919.201 1385 918.877 1388.66 L934.062 1388.64 Z" fill="#000000" fill-rule="nonzero" fill-opacity="1" /><path clip-path="url(#clip270)" d="M960.335 1381.97 Q959.618 1381.55 958.761 1381.37 Q957.928 1381.16 956.909 1381.16 Q953.298 1381.16 951.354 1383.52 Q949.433 1385.86 949.433 1390.26 L949.433 1403.91 L945.15 1403.91 L945.15 1377.99 L949.433 1377.99 L949.433 1382.02 Q950.775 1379.66 952.928 1378.52 Q955.081 1377.36 958.159 1377.36 Q958.599 1377.36 959.132 1377.43 Q959.664 1377.48 960.312 1377.6 L960.335 1381.97 Z" fill="#000000" fill-rule="nonzero" fill-opacity="1" /><path clip-path="url(#clip270)" d="M961.747 1377.99 L966.261 1377.99 L974.363 1399.75 L982.465 1377.99 L986.979 1377.99 L977.257 1403.91 L971.47 1403.91 L961.747 1377.99 Z" fill="#000000" fill-rule="nonzero" fill-opacity="1" /><path clip-path="url(#clip270)" d="M1004.64 1390.88 Q999.479 1390.88 997.488 1392.06 Q995.497 1393.24 995.497 1396.09 Q995.497 1398.36 996.979 1399.7 Q998.483 1401.02 1001.05 1401.02 Q1004.59 1401.02 1006.72 1398.52 Q1008.88 1396 1008.88 1391.83 L1008.88 1390.88 L1004.64 1390.88 M1013.14 1389.12 L1013.14 1403.91 L1008.88 1403.91 L1008.88 1399.98 Q1007.42 1402.34 1005.24 1403.47 Q1003.07 1404.59 999.918 1404.59 Q995.937 1404.59 993.576 1402.36 Q991.238 1400.12 991.238 1396.37 Q991.238 1391.99 994.155 1389.77 Q997.094 1387.55 1002.9 1387.55 L1008.88 1387.55 L1008.88 1387.13 Q1008.88 1384.19 1006.93 1382.6 Q1005.01 1380.97 1001.52 1380.97 Q999.293 1380.97 997.187 1381.51 Q995.081 1382.04 993.136 1383.1 L993.136 1379.17 Q995.474 1378.27 997.673 1377.83 Q999.872 1377.36 1001.96 1377.36 Q1007.58 1377.36 1010.36 1380.28 Q1013.14 1383.2 1013.14 1389.12 Z" fill="#000000" fill-rule="nonzero" fill-opacity="1" /><path clip-path="url(#clip270)" d="M1021.91 1367.9 L1026.17 1367.9 L1026.17 1403.91 L1021.91 1403.91 L1021.91 1367.9 Z" fill="#000000" fill-rule="nonzero" fill-opacity="1" /></svg>
